PathFileType	4	(X/Y/Z)	Walk2.trc
DataRate	CameraRate	NumFrames	NumMarkers	Units	OrigDataRate	OrigDataStartFrame	OrigNumFrames
200.000000	200.000000	4	61	mm	200.000000	965	1012
Frame#	Times		RCAR		LToe		LTB4		LTB1		RWRR		LMT1		RACR1		LFA1		LUA1		RFA1		LElbow		RFHD		LCAR		LASI		LWRU		LWRR		RLFC		STRN		LACR1		RTH3		RWRU		RToe		C7		RPSI		RMT1		RMT5		LPSI		RMFC		LFHD		RTB3		LTH3		LMFC		RTB2		RTB1		RCAL		LTH4		CLAV		RTB4		RTH2		RMMAL		LMT5		LTH1		RASI		LTH2		RLMAL		LBHD		LTB2		RBHD		LLFC		RUA1		RElbow		LTB3		RTH4		LMMAL		RTH1		LCAL		RBack		T10		LElbowM		LLMAL		RElbowM
			X1	Y1	Z1	X2	Y2	Z2	X3	Y3	Z3	X4	Y4	Z4	X5	Y5	Z5	X6	Y6	Z6	X7	Y7	Z7	X8	Y8	Z8	X9	Y9	Z9	X10	Y10	Z10	X11	Y11	Z11	X12	Y12	Z12	X13	Y13	Z13	X14	Y14	Z14	X15	Y15	Z15	X16	Y16	Z16	X17	Y17	Z17	X18	Y18	Z18	X19	Y19	Z19	X20	Y20	Z20	X21	Y21	Z21	X22	Y22	Z22	X23	Y23	Z23	X24	Y24	Z24	X25	Y25	Z25	X26	Y26	Z26	X27	Y27	Z27	X28	Y28	Z28	X29	Y29	Z29	X30	Y30	Z30	X31	Y31	Z31	X32	Y32	Z32	X33	Y33	Z33	X34	Y34	Z34	X35	Y35	Z35	X36	Y36	Z36	X37	Y37	Z37	X38	Y38	Z38	X39	Y39	Z39	X40	Y40	Z40	X41	Y41	Z41	X42	Y42	Z42	X43	Y43	Z43	X44	Y44	Z44	X45	Y45	Z45	X46	Y46	Z46	X47	Y47	Z47	X48	Y48	Z48	X49	Y49	Z49	X50	Y50	Z50	X51	Y51	Z51	X52	Y52	Z52	X53	Y53	Z53	X54	Y54	Z54	X55	Y55	Z55	X56	Y56	Z56	X57	Y57	Z57	X58	Y58	Z58	X59	Y59	Z59	X60	Y60	Z60	X61	Y61	Z61

965	4.825	1154.3	868.21	361.1	1220.8	32.13	-19.822	1064	280.32	-27.574	1077	363.76	-34.454	1160.7	913.15	301.09	1164	47.053	-7.6543	1086.6	1514	196	1161.1	1077.5	-324.99	1090.5	1366.7	-260.92	1105.4	1049.4	330.03	1063.4	1197.8	-313.38	1232.6	1713.6	90.352	1225	923.09	-343.77	1160	1049.9	-155.13	1147.3	945.59	-338.41	1224.3	958.88	-285.86	1212.3	547.99	219.43	1221.9	1316.5	4.8234	1090.3	1549.2	-176.14	1167.2	665.18	222.03	1092.4	904.43	357.74	1230	56.862	142.85	984.14	1571.6	15.423	929.08	1077.5	48.006	1187	78.391	123.14	1132.9	66.993	202.48	933.21	1089.1	-60.656	1213	531.56	74.942	1241.7	1722.5	-14.961	1137.4	246.7	121.4	1083.4	654.61	-171.92	1052.3	511.37	-2.0342	1170.4	319.23	191.73	1219.2	399.24	135.64	975.07	133.48	110.58	1085.4	740.16	-191.13	1154.1	1487.4	-2.216	1172.1	318.11	132.91	1183.4	769.25	229.11	1085.3	167.08	72.127	1123.4	26.775	-102.64	1084.5	825.98	-208.65	1143.5	1057.1	160.87	1142.9	741.99	-176.95	1037.1	148.81	160.85	1076.3	1713.8	-47.362	1085	273.25	-83.697	1061.2	1705	93.261	1052.2	507.87	-146.53	1062.5	1334.8	269.68	1017.2	1177.1	314.74	1051.2	196.38	-19.877	1128.8	740.87	225.07	1021.7	99.069	21.809	1091.5	821.13	224.41	938.65	45.583	-40.691	925.3	1447.2	127.97	947.89	1214.5	-7.6834	1033.4	1166	-229.31	1007	66.191	-76.787	993.23	1149.5	223.98
966	4.83	1157.3	867.71	361.2	1220.8	32.115	-19.82	1064.8	280.09	-27.502	1078.1	363.5	-34.444	1163.9	912.65	301.2	1164	47.049	-7.637	1091	1513.6	196.1	1166.8	1077.7	-325.16	1095.4	1366.5	-260.98	1108.7	1048.9	330.06	1068.7	1197.6	-313.59	1237.2	1713.3	90.536	1231.2	923.46	-343.88	1164.5	1049.5	-155.05	1153.4	945.73	-338.58	1230.4	959.27	-285.99	1219.1	548.06	219.2	1226.4	1316.2	4.8681	1094.9	1548.9	-176.05	1173.4	665.46	222.12	1095.4	904	357.67	1247.8	57.294	143.13	988.68	1571.3	15.466	933.69	1077.2	48.19	1204.2	77.762	123.57	1150.5	65.259	202.88	937.73	1088.9	-60.482	1219.2	531.61	74.706	1246.2	1722.2	-14.761	1150.6	244.91	121.62	1086.2	654.42	-171.84	1053.9	511.27	-2.1761	1182.1	318.18	191.8	1228.6	399.24	135.75	990.99	127.68	111.07	1088.6	740.02	-191.04	1158.7	1487.2	-2.1083	1184.4	318.04	132.15	1189.2	769.64	229.29	1100.4	164.04	72.413	1123.4	26.73	-102.62	1088.3	825.76	-208.47	1148.1	1056.8	161.05	1146	741.46	-176.14	1052.6	144.6	161.23	1080.8	1713.5	-47.179	1085.7	273.01	-83.54	1065.7	1704.7	93.436	1054	507.74	-146.55	1066.5	1334.5	269.69	1020.7	1176.8	314.63	1051.7	196.31	-19.744	1134.9	740.96	225.24	1021.8	99.008	21.826	1097.1	821.11	224.72	938.69	45.606	-40.644	929.7	1446.9	127.89	952.52	1214.2	-7.5786	1038.7	1165.7	-229.58	1007	66.263	-76.78	996.95	1149.3	223.81
967	4.835	1160.3	867.17	361.3	1220.9	32.099	-19.817	1065.6	279.87	-27.434	1079.3	363.24	-34.437	1167.1	912.11	301.32	1164	47.041	-7.6178	1095.4	1513.2	196.23	1172.4	1077.8	-325.3	1100.4	1366.4	-261.03	1112.2	1048.5	330.08	1074	1197.5	-313.78	1241.7	1713	90.728	1237.3	923.81	-343.96	1169.1	1049.1	-154.96	1159.5	945.84	-338.73	1236.4	959.63	-286.07	1225.8	548.06	218.99	1230.9	1315.9	4.9365	1099.6	1548.7	-175.94	1179.6	665.66	222.19	1098.5	903.55	357.62	1265.5	57.873	143.37	993.22	1571.1	15.524	938.31	1076.8	48.384	1221.4	77.28	123.98	1168	63.67	203.29	942.25	1088.7	-60.296	1225.4	531.59	74.466	1250.8	1722	-14.553	1163.8	243.17	121.85	1089	654.2	-171.75	1055.6	511.15	-2.3198	1193.7	317.15	191.88	1237.9	399.22	135.85	1007	122	111.6	1091.9	739.86	-190.92	1163.2	1486.9	-1.9831	1196.6	317.96	131.44	1194.9	769.92	229.46	1115.6	161.09	72.724	1123.3	26.679	-102.6	1092.2	825.5	-208.26	1152.7	1056.6	161.27	1149.1	740.92	-175.3	1068.2	140.5	161.65	1085.4	1713.2	-46.985	1086.4	272.76	-83.393	1070.3	1704.3	93.622	1055.8	507.6	-146.56	1070.5	1334.1	269.72	1024.4	1176.5	314.52	1052.1	196.25	-19.626	1140.8	740.97	225.35	1021.9	98.923	21.837	1102.7	821.03	225	938.72	45.637	-40.603	934.12	1446.7	127.83	957.15	1213.9	-7.4507	1044	1165.5	-229.83	1007.1	66.339	-76.772	1000.7	1149	223.65
968	4.84	1163.3	866.6	361.39	1220.9	32.08	-19.812	1066.4	279.66	-27.37	1080.5	362.98	-34.431	1170.3	911.53	301.43	1164	47.028	-7.5963	1099.8	1512.8	196.37	1178.1	1078	-325.42	1105.3	1366.2	-261.06	1115.6	1048	330.1	1079.3	1197.3	-313.96	1246.2	1712.6	90.928	1243.5	924.13	-344	1173.6	1048.7	-154.86	1165.6	945.92	-338.85	1242.4	959.96	-286.12	1232.3	547.98	218.79	1235.5	1315.5	5.0276	1104.2	1548.4	-175.82	1185.6	665.77	222.22	1101.6	903.07	357.59	1283.1	58.599	143.59	997.77	1570.8	15.599	942.95	1076.5	48.589	1238.5	76.947	124.36	1185.6	62.232	203.7	946.8	1088.5	-60.096	1231.6	531.52	74.221	1255.3	1721.7	-14.336	1177	241.5	122.09	1091.8	653.98	-171.65	1057.2	511.02	-2.4665	1205.3	316.14	191.98	1247.3	399.16	135.94	1023.1	116.45	112.18	1095.2	739.66	-190.78	1167.7	1486.5	-1.8408	1208.7	317.86	130.78	1200.5	770.12	229.62	1130.8	158.24	73.064	1123.3	26.626	-102.57	1096	825.22	-208.02	1157.3	1056.3	161.52	1152.3	740.36	-174.44	1083.9	136.52	162.1	1089.9	1712.9	-46.782	1087.2	272.49	-83.263	1074.8	1704	93.818	1057.7	507.46	-146.54	1074.5	1333.7	269.75	1028	1176.2	314.42	1052.7	196.17	-19.521	1146.7	740.91	225.41	1022.1	98.826	21.843	1108.1	820.88	225.23	938.76	45.677	-40.568	938.55	1446.4	127.78	961.79	1213.6	-7.298	1049.2	1165.2	-230.07	1007.1	66.418	-76.763	1004.5	1148.8	223.51
